<svg id="uuid-36627374-ee7a-4793-8f9e-c71a2cea4020" xmlns="http://www.w3.org/2000/svg" viewBox="0 0 341.87 138.07"><g id="uuid-853f8aca-950c-43aa-8256-d0b59174d846"><path d="M126.62,29.04c-22.06,0-40,17.94-40,39.99s17.94,39.99,40,39.99,40-17.94,40-39.99-17.94-39.99-40-39.99Zm0,54.98c-8.28,0-15-6.71-15-14.99s6.72-14.99,15-14.99,15,6.71,15,14.99-6.72,14.99-15,14.99ZM301.87,29.04c-22.06,0-40,17.94-40,39.99s17.94,39.99,40,39.99,40-17.94,40-39.99-17.94-39.99-40-39.99Zm0,54.98c-8.28,0-15-6.71-15-14.99s6.72-14.99,15-14.99,15,6.71,15,14.99-6.72,14.99-15,14.99ZM55,15.63V31.96c-4.63-1.88-9.7-2.92-15-2.92C17.94,29.04,0,46.98,0,69.03s17.94,39.99,40,39.99,40-17.94,40-39.99c0,0,0-.01,0-.02h0V3.14c-2.61-1.97-5.85-3.14-9.37-3.14-8.63,0-15.63,7-15.63,15.63Zm-15,68.4c-8.28,0-15-6.71-15-14.99s6.72-14.99,15-14.99,15,6.71,15,14.99-6.72,14.99-15,14.99Zm214.24-27.67v34.52h0v44.05c-2.61,1.97-5.85,3.14-9.37,3.14-8.63,0-15.63-7-15.63-15.63v-16.35c-4.64,1.88-9.7,2.93-15,2.93-13.84,0-26.05-7.06-33.24-17.77-4.27-6.36-6.76-14-6.76-22.22v-24.36c0-8.63,7-15.63,15.63-15.63,3.52,0,6.76,1.18,9.37,3.14v36.84c0,8.28,6.72,14.99,15,14.99s14.99-6.71,15-14.98h0s0,0,0,0,0,0,0,0v-22.08h0v-2.27c0-8.63,7-15.63,15.63-15.63,3.52,0,6.76,1.18,9.37,3.14v24.16h0Z" fill="#4bbd9a"></path></g></svg>