<?xml version="1.0" encoding="utf-8"?>
<!-- Generator: Adobe Illustrator 26.5.0, SVG Export Plug-In . SVG Version: 6.00 Build 0)  -->
<svg version="1.0" id="katman_1" xmlns="http://www.w3.org/2000/svg" xmlns:xlink="http://www.w3.org/1999/xlink" x="0px" y="0px"
	 viewBox="0 0 1190.55 841.89" style="enable-background:new 0 0 1190.55 841.89;" xml:space="preserve">
<style type="text/css">
	.st0{fill:#88CCC9;}
</style>
<g>
	<path class="st0" d="M917.35,430.63c16.56,0,29.49,12.21,29.49,29.94c0,17.53-13.94,29.55-30.7,29.55
		c-17.37,0-28.28-13.79-28.28-30.53C887.86,443.62,899.37,430.63,917.35,430.63 M849.68,460.17c0,38.8,23.63,62.83,58.17,62.83
		c23.63,0,37.17-14.77,37.17-14.77v11.82h37.77V399.11h-37.17v12.41c-11.11-9.85-20.6-14.77-35.75-14.77
		C875.34,396.75,849.68,426.49,849.68,460.17 M789.47,396.75c-22.62,0-30.7,9.26-40.6,19.3c-6.06-11.23-18.58-19.3-34.95-19.3
		c-21.01,0-34.94,18.12-34.94,18.12v-15.76h-36.97v120.93h37.77v-66.18c0-14.97,8.08-23.44,20.2-23.44
		c11.72,0,16.16,5.52,16.16,18.71v70.9h38.18v-65.98c0-14.57,8.08-23.64,20.2-23.64s16.97,5.52,16.97,19.11v70.9h37.77v-83.12
		C829.27,414.48,814.12,396.75,789.47,396.75 M611.92,432.21c8.48,0,13.13,2.36,13.13,2.36v-37.82h-8.48
		c-14.95,0-26.46,12.41-29.49,21.47v-19.11h-36.56v120.93h37.97v-55.74C588.49,440.87,597.37,432.21,611.92,432.21 M468.69,427.47
		c11.72,0,18.18,5.52,22.62,17.14h-47.06C448.9,433.38,455.97,427.47,468.69,427.47 M405.67,459.77c0,40.57,26.26,63.23,64.44,63.23
		c26.06,0,47.06-12.6,57.98-31.52c-6.86-4.13-29.29-16.74-29.29-16.74c-6.46,8.27-14.54,16.74-26.86,16.74
		c-14.14,0-25.86-6.89-29.09-21.28h87.26c0.21-2.75,0-4.33,0-7.29c0-43.14-25.25-66.18-61.01-66.18
		C432.54,396.75,405.67,423.14,405.67,459.77 M266.89,520.05h37.97v-69.14c0-11.62,10.1-21.28,22.22-21.28
		c16.56,0,19.39,9.46,19.39,19.5v70.9h38.78v-83.12c0-22.84-20-40.18-44.64-40.18c-24.24,0-36.16,18.12-36.16,18.12v-45.7h-37.57
		V520.05L266.89,520.05z M165.92,405.22v115.02h42.01V405.22h39.57v-35.85H126.35v35.85C126.35,405.22,165.92,405.22,165.92,405.22z
		"/>
	<path class="st0" d="M1038.78,357.17c0,8.24-6.86,14.92-15.3,14.92c-8.45,0-15.3-6.69-15.3-14.92s6.86-14.92,15.3-14.92
		C1031.93,342.25,1038.78,348.93,1038.78,357.17 M1063.65,357.17c0-21.63-17.98-39.17-40.17-39.17c-22.19,0-40.17,17.54-40.17,39.17
		c0,21.63,17.98,39.17,40.17,39.17C1045.66,396.34,1063.65,378.8,1063.65,357.17"/>
</g>
</svg>
