<svg xmlns="http://www.w3.org/2000/svg" width="370.988" height="112.271" viewBox="0 0 370.988 112.271"><path fill="#fff" d="M114.356 96.39l-1.81-2.962c-2.222 2.304-5.35 3.784-8.887 3.784-6.83 0-12.343-5.513-12.343-12.343V79.93c0-6.83 5.513-12.344 12.342-12.344h8.228v-9.05c0-4.525-3.703-8.23-8.23-8.23s-8.228 3.703-8.228 8.23v4.937h-4.114v-4.938c0-6.83 5.513-12.343 12.342-12.343S116 51.707 116 58.537v37.85l-1.644.003zm-2.468-24.684h-8.23c-4.524 0-8.228 3.703-8.228 8.23v4.936c0 4.526 3.702 8.23 8.23 8.23s8.228-3.703 8.228-8.23V71.706zM134.515 97.213c-6.83 0-12.344-5.513-12.344-12.343V58.54c0-6.83 5.515-12.343 12.345-12.343s12.342 5.513 12.342 12.343v4.938h-4.114V58.54c0-4.524-3.703-8.23-8.228-8.23-4.526 0-8.23 3.704-8.23 8.23v26.33c0 4.526 3.704 8.23 8.23 8.23 4.524 0 8.228-3.703 8.228-8.23v-4.937h4.114v4.937c0 6.83-5.512 12.343-12.342 12.343zM167.428 96.39c-6.83 0-12.343-5.515-12.343-12.344V51.134h-4.113v-4.112h4.113v-8.23h4.113v8.23h12.342v4.112h-12.342v32.913c0 4.526 3.704 8.23 8.23 8.23h4.11v4.113h-4.11zM176.477 34.678v-4.114h4.114v4.114h-4.113zm0 61.712V47.02h4.114v49.37h-4.113zM200.75 96.39h-4.113L185.53 47.02h4.114l9.05 39.496 9.052-39.495h4.115l-11.11 49.37zM228.314 97.213c-6.83 0-12.342-5.513-12.342-12.343V58.54c0-6.83 5.513-12.343 12.342-12.343 6.83 0 12.343 5.513 12.343 12.343v13.165h-20.57V84.87c0 4.526 3.702 8.23 8.228 8.23 4.525 0 8.228-3.703 8.228-8.23v-4.937h4.115v4.937c0 6.83-5.513 12.343-12.344 12.343zm8.228-38.672c0-4.523-3.702-8.228-8.228-8.228s-8.23 3.703-8.23 8.23v9.05h16.457l.002-9.05z"/><path fill="#fff" d="M247.485 96.39V30.564h6.42V96.39h-6.42zM283.36 96.39l-1.317-2.223c-2.222 1.894-5.184 3.045-8.31 3.045-7.24 0-13.084-5.843-13.084-13.083v-4.772c0-7.24 5.842-13.083 13.082-13.083h6.747v-7.57c0-3.703-3.045-6.747-6.748-6.747-3.702 0-6.747 3.044-6.747 6.747v5.925h-6.336v-5.925c0-7.24 5.842-13.082 13.082-13.082 7.24 0 13.082 5.84 13.082 13.082V96.39h-3.455zm-2.88-23.78h-6.748c-3.702 0-6.747 3.045-6.747 6.748v4.77c0 3.703 3.045 6.747 6.747 6.747 3.703 0 6.747-3.044 6.747-6.746V72.61zM332.48 96.39V58.705c0-3.703-3.044-6.747-6.747-6.747-3.702 0-6.747 3.044-6.747 6.747V96.39h-6.335V58.705c0-3.703-3.044-6.747-6.747-6.747-3.702 0-6.747 3.044-6.747 6.747V96.39h-6.335V46.445h3.457l1.315 2.14c2.222-1.81 5.103-2.962 8.31-2.962 3.95 0 7.49 1.73 9.875 4.524 2.387-2.797 6.008-4.524 9.956-4.524 7.242 0 13.083 5.84 13.083 13.082V96.39h-6.336zM357.905 97.213c-2.468 0-4.77-.74-6.746-1.893v16.95h-6.337V46.445h3.456l1.315 2.14c2.222-1.81 5.102-2.962 8.31-2.962 7.242 0 13.083 5.84 13.083 13.082V84.13c0 7.24-5.84 13.083-13.083 13.083zm6.748-38.508c0-3.703-3.044-6.747-6.748-6.747-3.702 0-6.746 3.044-6.746 6.747V84.13c0 3.702 3.043 6.664 6.745 6.664 3.704 0 6.748-2.962 6.748-6.664V58.705z"/><path fill="#fff" d="M51.173 36.876s6.32 11.29 18.43 2.932c0 0 7.514-6.585 13.96-15.413 0 0 23.968-31.805 46.776-20.855 0 0-18.1-10.832-36.574 5.407 0 0-13.86 12.687-24.09 23.245 0 0-8.027 6.824-12.057 3.07 2.71-.773 4.695-3.265 4.695-6.224 0-3.578-2.9-6.478-6.478-6.478s-6.478 2.898-6.478 6.478c0 .312.03.618.072.92-.076 2.367.546 4.917 1.74 6.918zM64.925 92.02c-3.12 2.45-5.324 3.137-11.2 4.173-14.08 2.938-25.3-2.756-25.3-2.756 19.508 18.552 40.34 2.196 40.34 2.196 5.434-5.007 1.686-10.546 1.686-10.546s-2.796 4.92-5.525 6.932zm25.72-64.556s-4.824 7.094-9.75 17.446c0 0-14.04 28.97-25.796 32.795 0 0-19.09 5.203-24.12-11.772 0 0-4.937-19.51 13.375-20.145 0 0 10.133.223 9.588 14.064 0 0 4.917-9.53-1.926-16.01 0 0-12.15-10.107-23.838-.188 0 0-1.026.673-2.38 2.037l-.018-.004c-.052.066-.104.13-.16.196-.665.687-1.394 1.534-2.12 2.542-6.195 7.253-10.88 10.934-10.88 10.934l.007.004c-5.37 4.046-8.987 7.596-8.987 7.596-8.855 10.96 1.218 17.98 1.218 17.98 9.785 7.24 13.394-3.202 13.394-3.202 1.277-6.874-5.486-6.59-5.486-6.59-4.692-.576-4.477 4.945-4.477 4.945-6.15-3.81 2.504-12.568 2.504-12.568 2.797-2.333 5.737-4.89 8.573-7.39-.317 4.77.7 10.61 4.27 17.575 0 0 12.788 20.164 34.64 8.98 0 0 14.833-6.95 24.355-33.49 0 0 13.213-46.116 40.858-49.148 0 0-15.466-4.467-32.845 23.414zm-64.93 36.46c.2 2.313.46 3.41.382 4.42l-.004.076s-3.994-3.24-3.804-6.495c.24-4.077 2.632-18.85 16.186-18.77 0 0-12.083 3.824-12.692 15.554 0-.002-.262 2.975-.07 5.215z"/></svg>