<svg width="24" height="25" viewBox="0 0 24 25" fill="none" xmlns="http://www.w3.org/2000/svg">
<g clip-path="url(#clip0_1928_3684)">
<path d="M23.1384 6.0679V0.783215C23.1384 0.670087 23.0415 0.57312 22.9283 0.57312H12.9569C11.8903 0.57312 10.856 1.00947 10.1287 1.7852L0.141172 11.7566C-0.279017 12.1606 0.0118835 12.8556 0.593684 12.8556H10.6459V23.2957C10.6459 23.7482 10.9206 24.1684 11.3408 24.3461C11.4863 24.4108 11.6317 24.4269 11.7772 24.4269C12.0681 24.4269 12.359 24.3138 12.5691 24.1037L21.8294 14.9888C22.6536 14.1808 23.1384 13.0333 23.1384 11.8859V6.0679ZM11.9065 23.4088C11.8418 23.4734 11.761 23.4573 11.7287 23.4411C11.6964 23.4249 11.6317 23.3926 11.6317 23.2957V12.8556H21.3122C21.49 12.8717 21.6839 12.9041 21.7971 13.001C21.8617 13.0657 21.894 13.1303 21.894 13.2273C21.7163 13.6313 21.4738 13.9868 21.1668 14.2939L11.9065 23.4088Z" fill="url(#paint0_linear_1928_3684)"/>
<path d="M-0.0576172 17.7651V18.1045V23.2599C-0.0576172 23.8902 0.443377 24.3912 1.07366 24.3912H5.24323C7.24721 24.3912 8.86332 22.7589 8.86332 20.7711V20.254V14.6299H3.07764C1.3484 14.6299 -0.0576172 16.0359 -0.0576172 17.7651ZM5.24323 23.4215H1.07366C0.976694 23.4215 0.91205 23.3569 0.91205 23.2599V20.254H7.65124C7.73204 20.2701 7.82901 20.3024 7.89365 20.3671V20.7711C7.89365 22.2256 6.69773 23.4215 5.24323 23.4215Z" fill="url(#paint1_linear_1928_3684)"/>
</g>
<defs>
<linearGradient id="paint0_linear_1928_3684" x1="11.5404" y1="0.57312" x2="11.5404" y2="24.4269" gradientUnits="userSpaceOnUse">
<stop stop-color="#9D6BFF"/>
<stop offset="1" stop-color="#3346F5"/>
</linearGradient>
<linearGradient id="paint1_linear_1928_3684" x1="4.40285" y1="14.6299" x2="4.40285" y2="24.3912" gradientUnits="userSpaceOnUse">
<stop stop-color="#9D6BFF"/>
<stop offset="1" stop-color="#3346F5"/>
</linearGradient>
<clipPath id="clip0_1928_3684">
<rect width="23.2074" height="23.8538" fill="white" transform="translate(0 0.57312)"/>
</clipPath>
</defs>
</svg>
